<?xml version="1.0" encoding="UTF-8" standalone="no"?>
<!-- Created with Inkscape (http://www.inkscape.org/) -->

<svg
   xmlns:dc="http://purl.org/dc/elements/1.1/"
   xmlns:cc="http://creativecommons.org/ns#"
   xmlns:rdf="http://www.w3.org/1999/02/22-rdf-syntax-ns#"
   xmlns:svg="http://www.w3.org/2000/svg"
   xmlns="http://www.w3.org/2000/svg"
   xmlns:sodipodi="http://sodipodi.sourceforge.net/DTD/sodipodi-0.dtd"
   xmlns:inkscape="http://www.inkscape.org/namespaces/inkscape"
   width="15.875mm"
   height="29.905117mm"
   viewBox="0 0 15.875 29.905118"
   version="1.1"
   id="svg8"
   inkscape:version="0.92.4 5da689c313, 2019-01-14"
   sodipodi:docname="oscar.svg">
  <defs
     id="defs2" />
  <sodipodi:namedview
     id="base"
     pagecolor="#ffffff"
     bordercolor="#666666"
     borderopacity="1.0"
     inkscape:pageopacity="0.0"
     inkscape:pageshadow="2"
     inkscape:zoom="2.8284271"
     inkscape:cx="-84.876684"
     inkscape:cy="108.77217"
     inkscape:document-units="mm"
     inkscape:current-layer="g908"
     showgrid="false"
     inkscape:snap-nodes="false"
     showguides="true"
     inkscape:guide-bbox="true"
     inkscape:window-width="1920"
     inkscape:window-height="1061"
     inkscape:window-x="0"
     inkscape:window-y="19"
     inkscape:window-maximized="0"
     fit-margin-top="0"
     fit-margin-left="0"
     fit-margin-right="0"
     fit-margin-bottom="0" />
  <metadata
     id="metadata5">
    <rdf:RDF>
      <cc:Work
         rdf:about="">
        <dc:format>image/svg+xml</dc:format>
        <dc:type
           rdf:resource="http://purl.org/dc/dcmitype/StillImage" />
        <dc:title></dc:title>
      </cc:Work>
    </rdf:RDF>
  </metadata>
  <g
     id="g908"
     transform="scale(0.27536114)">
    <path
       style="fill:#212121;fill-opacity:1;stroke-width:0.84199339"
       d="M 4.68572,3.4703059 C 8.469544,2.3135257 14.648678,0 16.037228,0 h 25.56347 c 1.23167,0 7.56767,2.3135373 11.35151,3.4703059 1.01659,0.310785 1.91885,1.3849753 1.91885,2.4480201 V 7.754724 H 2.766867 V 5.918326 c 0,-1.0630448 0.902254,-2.1372283 1.918853,-2.4480201 z"
       id="rect4579"
       inkscape:connector-curvature="0"
       sodipodi:nodetypes="sccssccss" />
    <path
       sodipodi:nodetypes="cccccc"
       inkscape:connector-curvature="0"
       id="path869"
       d="m 56.734638,35.152683 c 0.22534,-0.35523 0.47472,-3.609801 0.47263,-4.758631 V 11.989554 c 0,-0.477749 -0.77376,-3.725914 -1.56812,-4.208715 -0.80853,-0.49142 -2.00698,-0.920551 -4.10741,-1.104005 z"
       style="fill:#373737;fill-opacity:1;stroke-width:0.15444243" />
    <path
       style="fill:#373737;fill-opacity:1;stroke-width:0.15444243"
       d="m 0.905788,35.152683 c -0.22534,-0.35523 -0.47472,-3.609801 -0.47263,-4.758631 V 11.989554 c 0,-0.477749 0.77376,-3.725914 1.56812,-4.208715 0.80853,-0.49142 2.00698,-0.920551 4.10741,-1.104005 z"
       id="path4587"
       inkscape:connector-curvature="0"
       sodipodi:nodetypes="cccccc" />
    <path
       style="fill:#373737;fill-opacity:1;stroke-width:0.15444243"
       d="m 56.734638,102.79161 c 0.22534,-0.35523 0.91901,-1.64537 0.91692,-2.794202 V 81.745146 c -0.45507,-4.148082 -0.61412,-3.933084 -0.91692,-5.83691 z"
       id="path867"
       inkscape:connector-curvature="0"
       sodipodi:nodetypes="ccccc" />
    <path
       id="rect817"
       style="fill:#434343;fill-opacity:1;stroke-width:0.17567994"
       d="m 14.470157,1.0028424 c -0.791474,0 -7.2881318,1.884393 -7.2881318,1.884393 C 6.3555511,3.1035178 5.8326193,3.5969998 5.6706546,4.4416625 L 0.903235,32.784119 c -0.03924,0.209534 -0.02804,0.411729 0.02013,0.602031 -0.01131,0.117739 -0.02013,0.236138 -0.02013,0.356565 v 70.747105 c 0,2.27878 2.067168,4.11344 4.634906,4.11344 h 46.561597 c 2.56773,0 4.6349,-1.83466 4.6349,-4.11344 V 33.742715 c 0,-0.120435 -0.009,-0.238818 -0.0201,-0.356565 0.0482,-0.190334 0.0594,-0.392454 0.0201,-0.602031 L 51.967221,4.4416625 C 51.80526,3.5969966 51.23908,3.1917258 50.455853,2.8872354 c 0,0 -6.566045,-1.884393 -7.28813,-1.884393 z"
       inkscape:connector-curvature="0"
       sodipodi:nodetypes="cccccsssssscccccc" />
    <path
       style="fill:#1c1c1c;fill-opacity:0.99227798;stroke-width:0.17567994"
       d="m 6.141434,47.753231 c -0.743868,0 -1.342562,0.650121 -1.342562,1.45779 V 80.86077 C 4.475378,84.085427 0.903235,88.3745 0.903235,89.834381 v 14.655439 c 0,2.27878 2.067168,4.11344 4.634906,4.11344 h 46.561597 c 2.56773,0 4.6349,-1.83466 4.6349,-4.11344 V 89.834381 c 0,-1.556607 -3.55685,-5.750835 -3.89564,-9.043892 V 49.211021 c 0,-0.807669 -0.59869,-1.45779 -1.34256,-1.45779 z"
       id="path847"
       inkscape:connector-curvature="0" />
    <path
       style="fill:#212121;fill-opacity:1;stroke-width:0.13726962"
       d="m 6.141594,47.753215 h 45.354764 c 0.74386,0 1.34272,0.650219 1.34272,1.45789 v 51.002925 c 0,2.25761 -0.59829,3.57456 -1.31395,3.57456 H 6.174667 c -0.715662,0 -1.375795,-1.22341 -1.375795,-3.57456 V 49.211105 c 0,-0.807671 0.598854,-1.45789 1.342722,-1.45789 z"
       id="rect815"
       inkscape:connector-curvature="0"
       sodipodi:nodetypes="sssssssss" />
    <path
       inkscape:connector-curvature="0"
       id="path4593"
       style="fill:#ffffff;fill-opacity:0.70656373;stroke-width:0.01823607"
       d="m 2.591791,98.062328 c -0.28511,-0.0893 -0.47357,-0.36299 -0.47357,-0.81387 v -6.225543 c 0.0387,-1.105811 1.60771,-6.561421 1.66956,-2.962516 v 1.006251 c 0,0.556288 -0.71424,9.146678 -1.19599,8.995678 z M 2.407011,84.139917 c -0.47273,0 -0.28879,-5.13993 -0.28879,-8.72059 -0.006,-0.343602 0.59303,-0.14348 1.21819,0.236491 0.3338,0.20288 0.45137,0.408262 0.45137,0.915386 0,4.845247 -0.94779,7.568713 -1.38077,7.568713 z m 0.0591,-44.786227 c -0.0317,-0.321786 -0.38471,0.137014 -0.38471,0.559653 v 26.801856 c 0,0.422639 0.31029,0.625089 0.69571,0.625089 h 0.27812 c 0.38544,0 0.69573,-0.340248 0.69573,-0.762888 V 49.098485 C 3.696361,48.06178 2.607451,40.78691 2.466111,39.35369 Z m 52.580047,58.708638 c 0.28511,-0.0893 0.47357,-0.36299 0.47357,-0.81387 v -6.225543 c -0.0387,-1.105811 -1.60771,-6.561421 -1.66956,-2.962516 v 1.006251 c 0,0.556288 0.71424,9.146678 1.19599,8.995678 z m 0.18478,-13.922411 c 0.47273,0 0.28879,-5.13993 0.28879,-8.72059 0.006,-0.343602 -0.59303,-0.14348 -1.21819,0.236491 -0.3338,0.20288 -0.45137,0.408262 -0.45137,0.915386 0,4.845247 0.94779,7.568713 1.38077,7.568713 z m -0.0591,-44.786227 c 0.0317,-0.321786 0.38471,0.137014 0.38471,0.559653 v 26.801856 c 0,0.422639 -0.31029,0.625089 -0.69571,0.625089 h -0.27812 c -0.38544,0 -0.69573,-0.340248 -0.69573,-0.762888 V 49.098485 c 0.0546,-1.036705 1.14351,-8.311575 1.28485,-9.744795 z m -38.713578,68.489 h 24.719758 c 0.37937,0 0.55837,-0.18798 0.68483,-0.40447 l 1.21621,-2.08224 c 0.12865,-0.22026 -0.33391,-0.44217 -0.74868,-0.44217 H 15.305926 c -0.414761,0 -0.871247,0.2323 -0.74867,0.44217 l 1.216178,2.08224 c 0.117679,0.20148 0.305429,0.40447 0.684822,0.40447 z M 4.571436,36.24384 h 48.495092 c 0.74429,0 1.46863,0.533291 1.34348,1.174941 l -1.49697,7.675052 c -0.11782,0.604117 -0.56414,1.106213 -1.26489,1.106213 H 5.989815 c -0.700752,0 -1.147065,-0.502096 -1.264894,-1.106213 L 3.227953,37.418781 C 3.102804,36.777131 3.827146,36.24384 4.571436,36.24384 Z" />
    <path
       sodipodi:nodetypes="ccccc"
       inkscape:connector-curvature="0"
       id="path4614"
       d="m 6.141594,47.753215 h 45.354764 l 0.0288,56.035375 H 6.174667 Z"
       style="fill:#1b1b1b;fill-opacity:1;stroke-width:0.13726962" />
    <path
       inkscape:connector-curvature="0"
       id="path4635"
       style="fill:#4d4d4d;fill-opacity:1;stroke-width:0.06244787"
       d="m 22.40224,4.2091186 c -0.248322,0 -0.341046,0.49642 -0.448035,0.9927042 C 19.833826,15.037528 17.75032,24.88228 15.56855,34.704415 h 0.187584 l 6.7877,-26.648503 c 0,0 0.182798,-0.896586 0.409795,-0.896586 h 11.731069 c 0.227,0 0.40927,0.896586 0.40927,0.896586 l 6.7877,26.648503 h 0.18811 c -2.24971,-9.806816 -4.19755,-19.682103 -6.38618,-29.5025922 -0.10699,-0.4962863 -0.1997,-0.9927042 -0.44803,-0.9927042 z M 14.852315,3.1507853 c -0.540512,0 -0.742776,0.5138372 -0.975651,1.0273273 L 0.903294,32.784119 2.725924,34.702864 15.815562,4.6406167 c 0,0 0.378661,-0.8940022 0.849045,-0.8940022 h 24.309111 c 0.47038,0 0.84904,0.8940022 0.84904,0.8940022 l 13.08913,30.0622473 1.82262,-1.918745 -12.97336,-28.6060064 c -0.23288,-0.5134919 -0.43515,-1.0273273 -0.97565,-1.0273273 z" />
    <ellipse
       style="fill:#787878;fill-opacity:1;stroke-width:0.0953663"
       id="path843"
       cx="28.818991"
       cy="5.7036161"
       rx="0.72296077"
       ry="0.76108027" />
    <path
       sodipodi:nodetypes="sssssssss"
       inkscape:connector-curvature="0"
       id="path4640"
       d="m 6.141594,85.545126 h 45.354764 c 0.74386,0 1.34272,-0.0097 1.34272,-0.02184 v -0.764185 c 0,-0.03383 -0.59829,-0.05356 -1.31395,-0.05356 H 6.174667 c -0.715662,0 -1.375795,0.01833 -1.375795,0.05356 v 0.764181 c 0,0.0121 0.598854,0.02184 1.342722,0.02184 z"
       style="fill:#ffffff;fill-opacity:0.01176471;stroke-width:0.01680254" />
    <path
       style="fill:#ffffff;fill-opacity:0.01176471;stroke-width:0.01680254"
       d="m 6.141594,98.509708 h 45.354764 c 0.74386,0 1.34272,-0.01 1.34272,-0.0218 v -0.76418 c 0,-0.0338 -0.59829,-0.0536 -1.31395,-0.0536 H 6.174667 c -0.715662,0 -1.375795,0.0183 -1.375795,0.0536 v 0.76418 c 0,0.0121 0.598854,0.0218 1.342722,0.0218 z"
       id="path4642"
       inkscape:connector-curvature="0"
       sodipodi:nodetypes="sssssssss" />
    <path
       sodipodi:nodetypes="ccccc"
       inkscape:connector-curvature="0"
       id="path845"
       d="M 0.916925,102.79161 C 0.691585,102.43638 -0.002085,101.14624 5e-6,99.997408 V 81.745146 c 0.45507,-4.148082 0.61412,-3.933084 0.91692,-5.83691 z"
       style="fill:#373737;fill-opacity:1;stroke-width:0.15444243" />
  </g>
</svg>
