<?xml version="1.0" encoding="UTF-8" standalone="no"?>
<svg xmlns="http://www.w3.org/2000/svg" version="1.1" height="548.87" width="548.87" viewBox="0 0 548.87 548.87">
  <defs>
    <filter height="1.072" y="-0.036" width="1.072" x="-0.036" id="blur" style="color-interpolation-filters:sRGB">
      <feGaussianBlur stdDeviation="7.68" />
    </filter>
  </defs>
  <path d="m 274.432,530.432 c -68.38,0 -132.667,-26.629 -181.020001,-74.98 -48.353,-48.351 -74.98,-112.64 -74.98,-181.02 0,-68.38 26.629,-132.667 74.98,-181.020001 48.351001,-48.353 112.640001,-74.98 181.020001,-74.98 68.38,0 132.667,26.629 181.02,74.98 48.353,48.351001 74.98,112.640001 74.98,181.020001 0,68.38 -26.629,132.667 -74.98,181.02 -48.351,48.353 -112.64,74.98 -181.02,74.98 z m 0,-462.786001 c -114.023,0 -206.786001,92.765001 -206.786001,206.786001 0,114.021 92.765001,206.786 206.786001,206.786 114.021,0 206.786,-92.765 206.786,-206.786 0,-114.023 -92.765,-206.786001 -206.786,-206.786001 z" style="fill:#000000;fill-opacity:0.51162792;filter:url(#blur)" />
</svg>
